<?xml version="1.0" standalone="no"?>
<!DOCTYPE svg PUBLIC "-//W3C//DTD SVG 20010904//EN"
 "http://www.w3.org/TR/2001/REC-SVG-20010904/DTD/svg10.dtd">
<svg version="1.0" xmlns="http://www.w3.org/2000/svg"
 width="512.000000pt" height="512.000000pt" viewBox="0 0 512.000000 512.000000"
 preserveAspectRatio="xMidYMid meet">

<g transform="translate(0.000000,512.000000) scale(0.100000,-0.100000)"
fill="#000000" stroke="none">
<path d="M743 4962 c-67 -24 -118 -64 -154 -120 -38 -61 -49 -102 -49 -189 l0
-73 -87 0 c-223 0 -343 -60 -415 -208 l-33 -67 0 -1945 0 -1945 27 -57 c37
-79 98 -142 177 -181 l66 -32 1930 0 1930 0 50 24 c74 35 874 835 907 906 l23
50 3 866 c2 837 2 867 -16 890 -27 32 -87 32 -113 0 -18 -22 -19 -57 -19 -862
l0 -838 -317 -3 c-308 -3 -319 -4 -365 -26 -70 -35 -131 -93 -169 -164 l-34
-63 -3 -317 -3 -318 -1871 0 c-1451 0 -1880 3 -1912 12 -53 16 -121 84 -135
134 -8 27 -11 522 -11 1597 l0 1557 268 0 c256 0 269 1 290 20 32 30 30 82 -4
109 -25 20 -39 21 -290 21 l-264 0 0 254 c0 313 9 345 107 403 42 24 59 27
165 31 l118 4 0 -80 c0 -106 27 -179 87 -239 61 -62 121 -87 208 -87 176 -1
295 130 295 324 l0 80 134 0 133 0 5 -92 c4 -67 11 -106 27 -140 87 -183 319
-229 469 -93 63 56 86 113 92 225 l5 95 131 3 131 3 6 -91 c8 -110 32 -172 90
-228 118 -116 301 -115 415 1 58 59 81 118 89 226 l6 92 131 -3 131 -3 5 -95
c6 -112 29 -169 92 -225 150 -136 382 -90 469 93 16 34 23 73 27 140 l5 92
133 0 134 0 0 -80 c0 -104 27 -177 87 -237 61 -62 121 -87 208 -87 177 -1 295
130 295 326 l0 80 118 -4 c106 -4 123 -7 165 -31 98 -58 107 -90 107 -403 l0
-254 -1989 0 -1988 0 -27 -21 c-34 -27 -36 -79 -4 -109 22 -20 23 -20 2015
-20 l1993 0 0 -215 c0 -216 0 -216 25 -240 31 -32 69 -32 101 0 l25 25 -3 573
-3 572 -33 67 c-40 81 -113 149 -192 179 -41 16 -88 22 -181 26 l-127 6 -4 91
c-6 136 -57 220 -166 273 -112 55 -262 28 -341 -63 -57 -64 -74 -111 -79 -211
l-4 -93 -133 0 -132 0 -5 88 c-6 106 -29 163 -88 222 -62 62 -119 85 -210 84
-92 0 -157 -30 -218 -99 -52 -60 -72 -119 -72 -217 l0 -78 -134 0 -133 0 -7
87 c-8 103 -35 172 -91 226 -60 59 -118 81 -205 81 -172 0 -281 -113 -296
-307 l-7 -87 -133 0 -134 0 0 78 c0 98 -20 157 -72 217 -61 69 -126 99 -218
99 -63 1 -84 -4 -132 -27 -63 -31 -117 -89 -144 -153 -9 -21 -19 -78 -22 -126
l-5 -88 -132 0 -133 0 -4 93 c-5 100 -22 147 -79 211 -69 79 -205 114 -306 78z
m175 -160 c56 -41 62 -68 62 -301 0 -250 -6 -273 -85 -311 -52 -25 -87 -22
-140 10 -61 38 -66 63 -63 313 3 211 4 224 25 253 46 65 137 81 201 36z m858
3 c14 -9 34 -30 44 -48 18 -29 20 -52 20 -257 0 -260 -4 -275 -85 -311 -55
-24 -103 -18 -147 19 -53 45 -58 71 -58 294 0 183 2 206 21 244 36 76 136 105
205 59z m863 -2 c13 -11 34 -32 45 -47 20 -26 21 -41 21 -249 0 -204 -2 -225
-20 -256 -31 -53 -67 -75 -125 -75 -58 0 -94 22 -125 75 -17 30 -20 56 -24
208 -4 218 2 272 37 312 50 60 134 74 191 32z m847 6 c31 -15 48 -32 63 -63
19 -38 21 -61 21 -244 0 -223 -5 -249 -58 -294 -44 -37 -92 -43 -147 -19 -81
36 -85 51 -85 312 0 218 1 227 23 260 25 37 78 69 116 69 14 0 44 -9 67 -21z
m882 -7 c56 -41 62 -68 62 -301 0 -191 -2 -216 -20 -250 -20 -39 -84 -81 -125
-81 -41 0 -105 42 -126 82 -19 36 -20 55 -17 261 3 211 4 224 25 253 46 65
137 81 201 36z m177 -4082 l-310 -310 -3 217 c-2 120 0 232 3 249 8 48 61 113
108 135 37 16 68 19 277 19 l235 0 -310 -310z"/>
<path d="M1355 3413 c-511 -52 -905 -408 -1001 -902 -20 -102 -20 -296 0 -402
34 -180 112 -350 226 -493 l70 -87 0 -279 c0 -156 5 -300 10 -328 13 -58 57
-115 111 -142 37 -20 64 -20 1421 -20 1323 0 1385 1 1423 19 48 22 79 54 100
103 12 31 15 87 15 317 l0 280 293 3 292 3 47 28 c31 18 57 44 75 75 l28 47 3
614 c2 410 -1 631 -8 665 -13 62 -55 118 -111 146 -37 20 -63 20 -1075 20
l-1036 0 -57 52 c-102 94 -252 182 -386 226 -125 42 -327 67 -440 55z m287
-169 c205 -42 400 -161 538 -327 73 -88 161 -260 192 -377 29 -110 32 -336 5
-444 -23 -91 -70 -207 -114 -279 l-35 -58 -44 89 c-68 140 -204 265 -337 308
-29 9 -56 20 -61 25 -5 4 5 24 24 46 18 20 47 67 63 103 26 55 31 80 35 167 4
85 1 112 -17 166 -29 85 -65 141 -134 204 -187 170 -470 164 -647 -16 -172
-175 -187 -439 -34 -627 34 -42 35 -54 3 -54 -9 0 -54 -19 -100 -42 -119 -58
-220 -161 -279 -281 l-44 -88 -30 48 c-104 166 -154 388 -135 593 21 217 104
399 258 562 165 174 364 272 611 302 55 6 208 -4 282 -20z m1208 -599 l0 -285
-149 0 -150 0 -6 58 c-19 168 -84 355 -166 480 l-21 32 246 0 246 0 0 -285z
m730 0 l0 -285 -290 0 -290 0 0 285 0 285 290 0 290 0 0 -285z m721 268 c11
-12 15 -75 17 -285 l3 -268 -296 0 -295 0 0 285 0 285 279 0 c247 0 280 -2
292 -17z m-2747 -93 c124 -47 206 -164 206 -296 0 -92 -22 -153 -77 -214 -64
-71 -129 -102 -223 -108 -99 -5 -171 21 -238 86 -61 60 -93 126 -100 207 -18
232 213 406 432 325z m1296 -900 l0 -290 -265 0 -266 0 39 58 c85 124 149 282
172 422 7 41 14 81 16 88 2 9 42 12 154 12 l150 0 0 -290z m730 0 l0 -290
-290 0 -290 0 0 290 0 290 290 0 290 0 0 -290z m738 22 l2 -263 -25 -24 -24
-25 -268 2 -268 3 -3 288 -2 287 292 -2 293 -3 3 -263z m-2618 98 c186 -29
346 -180 390 -368 12 -51 11 -54 -11 -79 -38 -40 -179 -130 -258 -163 -135
-58 -211 -73 -371 -74 -119 0 -161 4 -234 22 -137 34 -277 105 -388 196 -45
37 -47 59 -17 148 54 161 184 276 353 313 74 16 441 19 536 5z m1150 -845 l0
-285 -290 0 -290 0 0 285 0 285 290 0 290 0 0 -285z m730 12 c0 -199 -3 -276
-12 -285 -9 -9 -87 -12 -290 -12 l-278 0 0 285 0 285 290 0 290 0 0 -273z
m-1460 -37 l0 -260 -290 0 -290 0 0 149 0 148 58 6 c134 14 345 96 467 181 28
19 51 35 53 35 1 1 2 -116 2 -259z m-1246 190 c128 -78 251 -122 406 -145 52
-8 98 -15 103 -15 4 0 7 -65 7 -145 l0 -145 -279 0 c-247 0 -280 2 -292 17
-11 12 -15 69 -17 245 -2 125 -1 228 1 228 3 0 35 -18 71 -40z"/>
</g>
</svg>
