<?xml version="1.0" standalone="no"?>
<!DOCTYPE svg PUBLIC "-//W3C//DTD SVG 20010904//EN"
 "http://www.w3.org/TR/2001/REC-SVG-20010904/DTD/svg10.dtd">
<svg version="1.0" xmlns="http://www.w3.org/2000/svg"
 width="512.000000pt" height="512.000000pt" viewBox="0 0 512.000000 512.000000"
 preserveAspectRatio="xMidYMid meet">

<g transform="translate(0.000000,512.000000) scale(0.100000,-0.100000)"
fill="#000000" stroke="none">
<path d="M988 5099 c-59 -30 -78 -79 -78 -194 l0 -95 -395 0 c-377 0 -398 -1
-435 -20 -26 -13 -47 -34 -60 -60 -20 -39 -20 -55 -20 -2025 0 -1970 0 -1986
20 -2025 13 -26 34 -47 60 -60 39 -20 56 -20 1303 -20 l1265 0 61 -79 c327
-423 882 -611 1401 -475 232 61 437 179 611 353 376 376 496 924 312 1421 -41
112 -86 196 -159 302 l-54 77 0 1246 c0 1229 0 1246 -20 1285 -13 26 -34 47
-60 60 -37 19 -58 20 -435 20 l-395 0 0 95 c0 117 -19 164 -80 195 -50 25 -90
25 -140 0 -61 -31 -80 -78 -80 -195 l0 -95 -300 0 -300 0 0 95 c0 117 -19 164
-80 195 -50 25 -90 25 -140 0 -61 -31 -80 -78 -80 -195 l0 -95 -300 0 -300 0
0 95 c0 76 -4 104 -20 135 -23 45 -80 80 -130 80 -50 0 -107 -35 -130 -80 -16
-31 -20 -59 -20 -135 l0 -95 -300 0 -300 0 0 95 c0 117 -19 164 -80 195 -49
25 -94 25 -142 -1z m-78 -679 c0 -71 4 -99 20 -130 23 -45 80 -80 130 -80 50
0 107 35 130 80 16 31 20 59 20 130 l0 90 300 0 300 0 0 -90 c0 -71 4 -99 20
-130 23 -45 80 -80 130 -80 50 0 107 35 130 80 16 31 20 59 20 130 l0 90 300
0 300 0 0 -90 c0 -112 20 -159 80 -190 50 -25 90 -25 140 0 60 31 80 78 80
190 l0 90 300 0 300 0 0 -90 c0 -112 20 -159 80 -190 50 -25 90 -25 140 0 60
31 80 78 80 190 l0 90 305 0 305 0 0 -300 0 -300 -2110 0 -2110 0 0 300 0 300
305 0 305 0 0 -90z m3610 -1379 l0 -570 -67 41 c-206 125 -418 182 -683 182
-221 1 -373 -32 -570 -121 -175 -79 -397 -260 -505 -410 l-49 -68 -202 3
c-189 4 -204 2 -243 -17 -46 -24 -81 -81 -81 -131 0 -50 35 -107 80 -130 33
-17 59 -20 169 -20 l129 0 -23 -77 c-13 -43 -29 -111 -35 -150 l-12 -73 -94 0
c-116 0 -163 -19 -194 -80 -25 -50 -25 -90 0 -140 31 -61 78 -80 194 -80 l94
0 12 -72 c6 -40 22 -108 35 -150 l23 -78 -1099 0 -1099 0 0 1355 0 1355 2110
0 2110 0 0 -569z m-607 -652 c415 -62 750 -354 865 -754 160 -552 -165 -1132
-723 -1293 -552 -160 -1132 165 -1293 723 -190 657 309 1325 996 1334 46 1
116 -4 155 -10z"/>
<path d="M988 3279 c-43 -22 -78 -81 -78 -129 0 -50 35 -107 80 -130 35 -18
59 -20 220 -20 161 0 185 2 220 20 45 23 80 80 80 130 0 50 -35 107 -80 130
-35 18 -58 20 -222 20 -162 -1 -187 -3 -220 -21z"/>
<path d="M2198 3279 c-43 -22 -78 -81 -78 -129 0 -50 35 -107 80 -130 35 -18
59 -20 220 -20 161 0 185 2 220 20 45 23 80 80 80 130 0 50 -35 107 -80 130
-35 18 -58 20 -222 20 -162 -1 -187 -3 -220 -21z"/>
<path d="M3398 3279 c-43 -22 -78 -81 -78 -129 0 -50 35 -107 80 -130 35 -18
59 -20 220 -20 161 0 185 2 220 20 45 23 80 80 80 130 0 50 -35 107 -80 130
-35 18 -58 20 -222 20 -162 -1 -187 -3 -220 -21z"/>
<path d="M988 2679 c-43 -22 -78 -81 -78 -129 0 -50 35 -107 80 -130 35 -18
59 -20 220 -20 161 0 185 2 220 20 45 23 80 80 80 130 0 50 -35 107 -80 130
-35 18 -58 20 -222 20 -162 -1 -187 -3 -220 -21z"/>
<path d="M2198 2679 c-43 -22 -78 -81 -78 -129 0 -50 35 -107 80 -130 35 -18
59 -20 220 -20 161 0 185 2 220 20 45 23 80 80 80 130 0 50 -35 107 -80 130
-35 18 -58 20 -222 20 -162 -1 -187 -3 -220 -21z"/>
<path d="M988 2079 c-43 -22 -78 -81 -78 -129 0 -50 35 -107 80 -130 35 -18
59 -20 220 -20 161 0 185 2 220 20 45 23 80 80 80 130 0 50 -35 107 -80 130
-35 18 -58 20 -222 20 -162 -1 -187 -3 -220 -21z"/>
<path d="M988 1479 c-43 -22 -78 -81 -78 -129 0 -50 35 -107 80 -130 35 -18
59 -20 220 -20 161 0 185 2 220 20 45 23 80 80 80 130 0 50 -35 107 -80 130
-35 18 -58 20 -222 20 -162 -1 -187 -3 -220 -21z"/>
<path d="M3698 2079 c-23 -12 -46 -35 -58 -59 -19 -37 -20 -58 -20 -370 0
-312 1 -333 20 -370 13 -26 34 -47 60 -60 37 -19 58 -20 370 -20 312 0 333 1
370 20 45 23 80 80 80 130 0 50 -35 107 -80 130 -36 18 -58 20 -280 20 l-240
0 0 240 c0 222 -2 244 -20 280 -37 73 -127 99 -202 59z"/>
</g>
</svg>
