<?xml version="1.0" standalone="no"?>
<!DOCTYPE svg PUBLIC "-//W3C//DTD SVG 20010904//EN"
 "http://www.w3.org/TR/2001/REC-SVG-20010904/DTD/svg10.dtd">
<svg version="1.0" xmlns="http://www.w3.org/2000/svg"
 width="512.000000pt" height="512.000000pt" viewBox="0 0 512.000000 512.000000"
 preserveAspectRatio="xMidYMid meet">

<g transform="translate(0.000000,512.000000) scale(0.100000,-0.100000)"
fill="#000000" stroke="none">
<path d="M1989 4944 c-366 -66 -659 -340 -761 -713 -17 -62 -21 -105 -21 -231
0 -171 13 -241 73 -381 70 -165 228 -349 374 -433 l67 -39 -118 -42 c-253 -88
-457 -218 -658 -420 -322 -322 -521 -738 -594 -1241 -27 -186 -38 -412 -21
-443 22 -41 384 -205 670 -303 462 -159 871 -228 1258 -215 161 6 173 5 168
-11 -3 -9 -17 -66 -30 -127 -28 -121 -24 -146 25 -174 24 -13 56 -7 415 74
l389 88 718 716 c395 394 738 743 761 776 68 95 89 162 89 280 0 115 -19 181
-79 270 -139 210 -430 271 -649 137 -22 -14 -105 -89 -185 -168 l-145 -144
-52 88 c-92 156 -176 265 -308 397 -71 72 -173 161 -225 198 -112 79 -339 194
-462 233 l-86 28 87 57 c199 131 347 344 408 585 26 103 23 343 -5 445 -102
376 -397 649 -769 714 -104 18 -232 18 -334 -1z m361 -167 c100 -28 168 -57
242 -106 367 -240 476 -718 248 -1088 -235 -381 -741 -497 -1112 -254 -318
208 -445 591 -316 949 93 257 319 448 598 508 80 17 262 12 340 -9z m110
-1767 c476 -97 872 -402 1116 -857 l39 -72 -532 -533 -533 -533 -40 -175 c-23
-96 -46 -177 -52 -181 -6 -4 -72 -10 -147 -14 -402 -22 -834 53 -1337 233
-122 44 -347 138 -435 183 -68 34 -66 23 -49 204 64 684 361 1225 846 1537
164 106 405 194 610 223 139 20 378 13 514 -15z m1994 -614 c180 -83 241 -315
125 -476 l-31 -43 -224 224 c-123 123 -223 228 -221 234 7 20 86 68 134 81 64
18 153 10 217 -20z m-641 -1248 l-623 -623 -225 225 -225 225 622 622 623 623
225 -225 225 -225 -622 -622z m-793 -692 c-7 -6 -451 -108 -455 -104 -3 3 90
416 101 448 3 9 63 -44 182 -163 97 -97 174 -178 172 -181z"/>
</g>
</svg>
