<?xml version="1.0" standalone="no"?>
<!DOCTYPE svg PUBLIC "-//W3C//DTD SVG 20010904//EN"
 "http://www.w3.org/TR/2001/REC-SVG-20010904/DTD/svg10.dtd">
<svg version="1.0" xmlns="http://www.w3.org/2000/svg"
 width="512.000000pt" height="512.000000pt" viewBox="0 0 512.000000 512.000000"
 preserveAspectRatio="xMidYMid meet">

<g transform="translate(0.000000,512.000000) scale(0.100000,-0.100000)"
fill="#000000" stroke="none">
<path d="M1360 5027 c-49 -16 -133 -102 -148 -153 -7 -24 -12 -100 -12 -178
l0 -136 -56 0 c-31 0 -75 -5 -98 -12 -55 -16 -138 -99 -154 -154 -9 -31 -12
-265 -12 -945 l-1 -904 -66 -30 c-231 -103 -475 -340 -595 -580 -96 -189 -132
-349 -132 -575 0 -183 14 -271 66 -420 110 -311 348 -580 643 -728 424 -211
946 -162 1328 124 160 120 324 320 393 479 l28 65 1145 0 c869 0 1154 3 1185
12 55 16 138 99 154 154 17 59 18 3288 0 3346 -6 22 -31 62 -55 88 -51 57
-108 80 -195 80 l-58 0 0 136 c0 163 -10 200 -67 264 -59 65 -105 80 -251 80
-147 0 -184 -11 -247 -75 -66 -65 -75 -99 -75 -269 l0 -136 -1120 0 -1120 0 0
136 c0 77 -5 154 -12 176 -17 59 -88 133 -145 152 -55 19 -267 21 -323 3z
m295 -172 l25 -24 0 -351 0 -351 -25 -24 c-23 -24 -31 -25 -135 -25 -104 0
-112 1 -135 25 l-25 24 0 351 0 351 25 24 c23 24 31 25 135 25 104 0 112 -1
135 -25z m2880 0 l25 -24 0 -351 0 -351 -25 -24 c-23 -24 -31 -25 -135 -25
-104 0 -112 1 -135 25 l-25 24 0 351 0 351 25 24 c23 24 31 25 135 25 104 0
112 -1 135 -25z m-3335 -591 c0 -170 9 -204 75 -269 63 -64 100 -75 245 -75
145 0 182 11 245 75 66 65 75 99 75 269 l0 136 1120 0 1120 0 0 -136 c0 -170
9 -204 75 -269 63 -64 100 -75 245 -75 145 0 182 11 245 75 66 65 75 99 75
269 l0 136 55 0 c46 0 60 -4 80 -25 l25 -24 0 -376 0 -375 -1680 0 -1680 0 0
-80 0 -80 1680 0 1680 0 0 -790 c0 -434 -2 -790 -4 -790 -2 0 -63 83 -135 184
-72 101 -138 187 -147 190 -42 16 -67 3 -186 -95 -68 -56 -133 -111 -145 -122
l-23 -20 0 161 0 162 240 0 240 0 0 80 0 80 -295 0 -296 0 -24 -25 -25 -24 0
-284 0 -284 -494 -411 -494 -412 -246 0 c-135 0 -246 3 -246 8 0 4 4 23 9 42
5 19 12 49 15 67 6 35 17 30 -113 49 l-39 5 -12 -58 c-69 -343 -282 -629 -590
-787 -316 -163 -676 -167 -995 -12 -697 340 -851 1250 -305 1796 98 98 192
163 322 225 593 278 1305 -23 1525 -645 19 -56 26 -65 45 -62 43 5 128 33 128
42 0 19 -54 158 -88 225 -60 119 -131 216 -241 326 -199 199 -435 321 -707
363 l-89 14 163 1 c159 1 163 2 187 26 l25 24 0 271 0 271 -25 24 -24 25 -271
0 -271 0 -24 -25 -25 -24 0 -272 0 -271 31 -29 31 -29 -38 0 c-22 0 -70 -7
-109 -15 -38 -8 -71 -15 -72 -15 -2 0 -3 394 -3 875 l0 876 25 24 c20 21 34
25 80 25 l55 0 0 -136z m480 -1304 l0 -160 -160 0 -160 0 0 160 0 160 160 0
160 0 0 -160z m3015 -1125 c78 -110 142 -201 141 -202 0 0 -301 -134 -668
-297 l-667 -297 -77 3 -77 3 594 496 c327 274 598 496 602 495 5 -1 73 -91
152 -201z m185 -555 c0 -189 0 -191 -25 -215 l-24 -25 -463 1 c-364 0 -458 3
-438 12 95 46 928 415 938 416 9 1 12 -43 12 -189z"/>
<path d="M1200 3520 l0 -80 80 0 80 0 0 80 0 80 -80 0 -80 0 0 -80z"/>
<path d="M2185 3255 l-25 -24 0 -271 0 -271 25 -24 24 -25 271 0 271 0 24 25
25 24 0 271 0 271 -25 24 -24 25 -271 0 -271 0 -24 -25z m455 -295 l0 -160
-160 0 -160 0 0 160 0 160 160 0 160 0 0 -160z"/>
<path d="M3145 3255 l-25 -24 0 -271 0 -271 25 -24 24 -25 271 0 271 0 24 25
25 24 0 271 0 271 -25 24 -24 25 -271 0 -271 0 -24 -25z m455 -295 l0 -160
-160 0 -160 0 0 160 0 160 160 0 160 0 0 -160z"/>
<path d="M4105 3255 l-25 -24 0 -271 0 -271 25 -24 24 -25 271 0 271 0 24 25
25 24 0 271 0 271 -25 24 -24 25 -271 0 -271 0 -24 -25z m455 -295 l0 -160
-160 0 -160 0 0 160 0 160 160 0 160 0 0 -160z"/>
<path d="M2240 2400 l0 -80 200 0 200 0 0 -240 0 -240 80 0 80 0 0 295 0 296
-25 24 -24 25 -256 0 -255 0 0 -80z"/>
<path d="M3145 2455 l-25 -24 0 -271 0 -271 25 -24 24 -25 271 0 271 0 24 25
25 24 0 271 0 271 -25 24 -24 25 -271 0 -271 0 -24 -25z m455 -295 l0 -160
-160 0 -160 0 0 160 0 160 160 0 160 0 0 -160z"/>
<path d="M1193 2305 c-201 -36 -365 -124 -513 -274 -129 -130 -212 -278 -257
-457 -24 -95 -24 -333 0 -428 45 -179 128 -327 257 -457 177 -180 385 -273
635 -286 277 -14 519 81 720 282 137 137 216 276 262 461 24 95 24 333 0 428
-25 99 -72 210 -125 296 -62 102 -206 243 -311 308 -196 120 -445 168 -668
127z m167 -305 l80 0 0 79 0 79 68 -13 c94 -18 210 -65 287 -115 36 -23 65
-45 65 -48 0 -4 -24 -30 -52 -59 l-53 -53 58 -57 57 -58 55 55 c53 52 55 53
70 35 69 -90 128 -221 150 -337 l13 -68 -79 0 -79 0 0 -80 0 -80 79 0 79 0
-13 -67 c-22 -117 -81 -248 -150 -338 -15 -18 -17 -17 -70 35 l-55 55 -57 -58
-58 -57 53 -53 c28 -29 52 -56 52 -59 0 -13 -148 -98 -215 -123 -39 -15 -100
-33 -137 -40 l-68 -13 0 79 0 79 -80 0 -80 0 0 -79 0 -79 -67 13 c-117 22
-248 81 -338 150 -18 15 -17 17 35 70 l55 55 -58 57 -57 58 -55 -55 c-63 -62
-55 -66 -125 50 -45 75 -76 156 -94 253 l-14 67 79 0 79 0 0 80 0 80 -79 0
-79 0 13 68 c19 98 56 190 109 276 26 42 50 76 54 76 3 0 30 -24 59 -52 l53
-53 57 58 58 57 -55 55 c-52 53 -53 55 -35 70 89 69 222 128 335 149 l65 12 3
-78 3 -78 79 0z"/>
<path d="M1280 1625 l0 -296 25 -24 c24 -25 24 -25 240 -25 l215 0 0 80 0 80
-160 0 -160 0 0 240 0 240 -80 0 -80 0 0 -295z"/>
<path d="M2536 1519 c-32 -5 -60 -10 -62 -12 -2 -1 0 -35 3 -75 l6 -72 78 0
79 0 0 39 c0 21 -3 59 -6 85 -7 51 -2 49 -98 35z"/>
</g>
</svg>
