<?xml version="1.0" standalone="no"?>
<!DOCTYPE svg PUBLIC "-//W3C//DTD SVG 20010904//EN"
 "http://www.w3.org/TR/2001/REC-SVG-20010904/DTD/svg10.dtd">
<svg version="1.0" xmlns="http://www.w3.org/2000/svg"
 width="512.000000pt" height="512.000000pt" viewBox="0 0 512.000000 512.000000"
 preserveAspectRatio="xMidYMid meet">

<g transform="translate(0.000000,512.000000) scale(0.100000,-0.100000)"
fill="#000000" stroke="none">
<path d="M821 4979 c-115 -19 -245 -106 -310 -207 -55 -87 -72 -152 -78 -309
l-6 -143 -111 0 c-174 0 -244 -30 -291 -123 -22 -45 -25 -63 -25 -162 0 -62 5
-127 11 -146 19 -56 59 -100 113 -125 45 -21 65 -24 179 -24 l127 0 0 -199 0
-199 -138 -4 c-134 -3 -140 -4 -187 -33 -36 -22 -57 -45 -77 -84 -26 -49 -28
-62 -28 -170 0 -108 2 -122 28 -172 20 -40 39 -61 76 -84 48 -29 54 -30 188
-33 l138 -4 0 -198 0 -198 -138 -4 c-134 -3 -140 -4 -188 -33 -37 -23 -56 -44
-77 -84 -25 -50 -27 -64 -27 -172 0 -108 2 -121 28 -170 20 -39 41 -62 76 -84
47 -29 54 -30 187 -33 l139 -4 0 -199 0 -199 -121 0 c-147 0 -191 -12 -244
-65 -52 -52 -65 -97 -65 -232 0 -97 3 -115 25 -160 47 -93 117 -123 291 -123
l111 0 6 -142 c6 -158 23 -223 78 -310 68 -105 194 -187 319 -207 82 -14 3170
-15 3250 -2 178 30 326 152 382 319 l23 67 3 1210 3 1210 288 290 c334 336
335 337 336 501 0 84 -2 95 -37 165 -29 59 -56 94 -123 158 -146 140 -271 175
-441 126 -21 -7 -21 -5 -26 202 -5 171 -9 219 -26 270 -54 168 -200 294 -372
322 -81 13 -3189 13 -3269 0z m349 -2420 l0 -2271 -167 4 c-196 4 -239 17
-316 96 -73 74 -90 123 -95 278 l-5 131 91 5 c116 5 173 32 217 103 28 45 30
56 33 165 4 146 -6 189 -61 244 -51 50 -99 66 -201 66 l-76 0 0 199 0 199 94
4 c122 5 176 34 219 117 25 50 27 64 27 166 0 120 -9 162 -47 213 -40 53 -94
75 -200 80 l-93 4 0 198 0 198 93 4 c106 5 160 27 200 80 38 51 47 93 47 213
0 102 -2 116 -27 166 -43 83 -97 112 -219 117 l-94 4 0 199 0 199 76 0 c102 0
150 16 201 66 55 55 65 98 61 244 -3 109 -5 120 -33 165 -44 71 -101 98 -217
103 l-91 5 5 131 c4 114 8 139 30 186 42 90 122 157 215 179 21 5 104 9 186
10 l147 1 0 -2271z m2968 2242 c65 -29 143 -113 168 -178 14 -40 18 -91 21
-308 l4 -260 -215 -215 -216 -215 0 113 c0 120 -8 148 -52 189 -59 55 -21 53
-1015 53 -605 0 -931 -4 -955 -11 -49 -13 -103 -69 -117 -122 -9 -29 -11 -120
-9 -288 l3 -246 27 -40 c16 -24 44 -49 70 -62 44 -21 50 -21 828 -21 l785 0
-658 -658 c-361 -362 -657 -661 -657 -665 0 -4 -43 -166 -95 -361 -52 -195
-95 -370 -95 -389 0 -26 7 -41 26 -56 15 -12 34 -21 43 -21 9 0 182 45 386
100 l369 99 766 766 c421 421 769 765 773 765 4 0 6 -501 5 -1112 -3 -1055 -4
-1115 -22 -1161 -25 -66 -104 -149 -168 -178 l-53 -24 -1377 -3 -1378 -2 0
2270 0 2270 1378 -2 1377 -3 53 -24z m-3390 -657 c20 -14 22 -23 22 -111 0
-143 22 -133 -303 -133 -238 0 -273 2 -289 17 -15 13 -18 32 -18 110 0 141
-18 133 303 133 221 0 266 -2 285 -16z m4002 -124 c20 -10 69 -54 111 -97 57
-60 78 -90 88 -126 16 -54 9 -121 -15 -170 -9 -17 -504 -520 -1100 -1117
l-1084 -1085 -205 205 -205 205 1077 1078 c593 593 1093 1087 1112 1099 66 41
150 44 221 8z m-1010 -378 l0 -178 -58 -57 -58 -57 -854 2 -855 3 -3 220 c-1
121 0 225 2 232 4 10 188 13 916 13 l910 0 0 -178z m-2992 -478 c20 -14 22
-23 22 -114 0 -138 19 -130 -305 -130 -324 0 -305 -8 -305 130 0 138 -19 130
305 130 220 0 264 -2 283 -16z m0 -980 c20 -14 22 -23 22 -114 0 -138 19 -130
-305 -130 -324 0 -305 -8 -305 130 0 138 -19 130 305 130 220 0 264 -2 283
-16z m1687 -674 c88 -88 156 -160 152 -160 -4 0 -102 -25 -217 -56 -116 -31
-213 -55 -215 -52 -6 5 108 428 115 428 3 0 77 -72 165 -160z m-1683 -307 c15
-13 18 -32 18 -114 0 -137 19 -129 -307 -129 -321 0 -303 -8 -303 132 0 137
-21 128 303 128 238 0 273 -2 289 -17z"/>
</g>
</svg>
