<?xml version="1.0" standalone="no"?>
<!DOCTYPE svg PUBLIC "-//W3C//DTD SVG 20010904//EN"
 "http://www.w3.org/TR/2001/REC-SVG-20010904/DTD/svg10.dtd">
<svg version="1.0" xmlns="http://www.w3.org/2000/svg"
 width="512.000000pt" height="512.000000pt" viewBox="0 0 512.000000 512.000000"
 preserveAspectRatio="xMidYMid meet">

<g transform="translate(0.000000,512.000000) scale(0.100000,-0.100000)"
fill="#000000" stroke="none">
<path d="M2415 5104 c-253 -52 -475 -270 -532 -523 l-18 -81 -82 0 -83 0 0 65
c0 104 -40 174 -122 216 -91 47 -195 30 -267 -43 -46 -45 -71 -113 -71 -190
l0 -48 -80 0 -80 0 0 65 c0 104 -40 174 -122 216 -81 42 -170 34 -245 -20 -53
-39 -84 -105 -91 -191 l-5 -69 -227 -3 -227 -3 -49 -30 c-123 -76 -149 -237
-56 -346 48 -56 100 -79 185 -79 l67 0 0 -434 c0 -423 0 -434 21 -460 23 -30
72 -35 105 -12 18 14 19 33 24 458 l5 443 76 3 76 3 5 -73 c6 -85 30 -140 82
-185 46 -41 95 -56 171 -51 122 8 195 89 205 228 l5 75 76 3 76 3 6 -74 c8
-116 63 -198 152 -227 60 -20 156 -9 204 23 68 45 95 96 101 191 l5 81 855 0
855 0 5 -81 c5 -66 11 -89 33 -123 41 -62 97 -94 172 -99 149 -10 240 75 252
235 l6 74 76 -3 76 -3 5 -75 c10 -139 83 -220 205 -228 149 -10 243 78 253
236 l5 73 76 -3 76 -3 3 -857 2 -858 -79 58 c-176 131 -457 242 -612 242 -64
0 -99 -55 -69 -109 12 -23 26 -29 124 -47 165 -32 351 -115 486 -219 79 -61
208 -199 262 -280 154 -234 220 -505 189 -774 -50 -430 -327 -795 -723 -954
-312 -126 -647 -113 -953 38 -307 151 -526 422 -616 762 -30 112 -37 366 -15
485 71 374 300 676 641 844 98 48 212 84 348 109 61 12 89 83 47 125 -27 27
-84 26 -201 -4 -514 -131 -895 -540 -985 -1059 -25 -142 -15 -399 20 -534 15
-56 38 -129 51 -162 14 -33 25 -63 25 -66 0 -3 -342 -5 -760 -5 l-760 0 0 288
c0 233 -3 292 -14 308 -14 18 -32 19 -308 24 l-293 5 -5 753 -5 754 -25 20
c-17 14 -33 18 -54 14 -66 -13 -61 88 -64 -1294 -2 -897 1 -1265 9 -1284 6
-14 23 -31 37 -37 19 -8 216 -11 665 -9 l639 3 19 24 c26 32 24 73 -4 99 l-23
22 -597 0 -597 0 0 337 0 338 247 -247 c137 -135 258 -251 270 -257 15 -8 270
-11 865 -12 l843 0 57 -80 58 -79 -440 0 c-427 0 -441 -1 -460 -20 -28 -28
-26 -75 5 -105 l24 -25 512 0 511 0 61 -46 c346 -260 794 -332 1209 -194 413
138 743 491 852 914 100 382 22 793 -210 1110 l-54 74 0 936 0 936 68 0 c84 0
136 23 184 79 93 109 67 270 -56 346 l-49 30 -227 3 -227 3 -5 69 c-7 86 -38
152 -91 191 -75 54 -164 62 -245 20 -82 -42 -122 -112 -122 -216 l0 -65 -80 0
-80 0 0 48 c0 117 -62 214 -157 246 -82 28 -159 14 -224 -42 -56 -48 -79 -100
-79 -184 l0 -68 -83 0 -82 0 -18 81 c-44 196 -185 373 -367 462 -151 74 -298
93 -455 61z m279 -154 c228 -58 385 -246 411 -490 11 -105 20 -110 182 -110
l133 0 0 -80 0 -80 -186 0 c-167 0 -190 2 -218 19 -55 34 -69 72 -76 201 -5
95 -10 125 -32 172 -52 113 -158 193 -285 218 -162 32 -339 -63 -411 -218 -22
-47 -27 -77 -32 -172 -7 -129 -21 -167 -76 -201 -28 -17 -51 -19 -218 -19
l-186 0 0 80 0 80 133 0 c167 0 169 2 186 135 19 155 97 288 223 381 130 95
291 125 452 84z m-1789 -315 l25 -24 0 -342 c0 -338 0 -343 -22 -366 -31 -33
-90 -32 -117 3 -20 26 -21 38 -21 361 l0 335 29 29 c36 36 73 37 106 4z m620
0 l25 -24 0 -346 c0 -332 -1 -346 -20 -365 -26 -26 -80 -26 -111 -1 l-24 19
-3 341 -3 342 30 29 c36 37 73 39 106 5z m1099 11 c58 -18 107 -54 137 -102
19 -31 24 -59 31 -156 4 -65 14 -134 23 -154 8 -20 15 -38 15 -40 0 -2 -121
-4 -270 -4 -148 0 -270 2 -270 4 0 2 7 20 15 40 9 20 19 89 23 154 7 97 12
125 31 156 29 46 79 84 133 101 56 18 75 18 132 1z m1077 -16 l30 -29 -3 -342
-3 -341 -24 -19 c-31 -25 -85 -25 -111 1 -19 19 -20 33 -20 365 l0 346 25 24
c33 34 70 32 106 -5z m620 1 l29 -29 0 -335 c0 -323 -1 -335 -21 -361 -27 -34
-82 -36 -116 -4 l-23 21 0 344 0 344 25 24 c33 33 70 32 106 -4z m-3701 -361
l0 -80 -214 0 -215 0 -20 26 c-12 15 -21 35 -21 45 0 29 21 66 44 77 12 6 106
11 224 11 l202 1 0 -80z m620 0 l0 -80 -80 0 -80 0 0 80 0 80 80 0 80 0 0 -80z
m2800 0 l0 -80 -80 0 -80 0 0 80 0 80 80 0 80 0 0 -80z m883 69 c47 -21 60
-80 26 -123 l-20 -26 -215 0 -214 0 0 80 0 80 200 0 c124 0 208 -4 223 -11z
m-3993 -3274 c0 -96 -1 -175 -3 -175 -1 0 -81 79 -177 175 l-175 175 178 0
177 0 0 -175z"/>
<path d="M1910 3867 c-45 -23 -51 -48 -48 -235 3 -169 4 -174 27 -193 22 -18
48 -19 672 -19 633 0 649 0 669 20 29 29 32 51 28 228 -3 153 -4 163 -26 184
l-23 23 -637 2 c-498 2 -642 0 -662 -10z m1198 -219 l3 -78 -551 0 -550 0 0
73 c0 41 3 77 7 80 3 4 250 6 547 5 l541 -3 3 -77z"/>
<path d="M823 3250 c-38 -16 -43 -41 -43 -229 0 -239 -19 -221 229 -221 l190
0 20 26 c19 25 21 40 21 195 0 179 -6 209 -47 228 -29 13 -337 14 -370 1z
m267 -220 l0 -80 -80 0 -80 0 0 80 0 80 80 0 80 0 0 -80z"/>
<path d="M1443 3250 c-38 -16 -43 -41 -43 -229 0 -239 -19 -221 229 -221 l190
0 20 26 c19 25 21 40 21 195 0 179 -6 209 -47 228 -29 13 -337 14 -370 1z
m267 -220 l0 -80 -80 0 -80 0 0 80 0 80 80 0 80 0 0 -80z"/>
<path d="M2063 3250 c-38 -16 -43 -41 -43 -227 0 -240 -18 -223 230 -223 l189
0 20 26 c19 25 21 40 21 200 0 95 -3 180 -6 189 -14 37 -57 45 -226 44 -90 0
-173 -4 -185 -9z m267 -220 l0 -80 -80 0 -80 0 0 80 0 80 80 0 80 0 0 -80z"/>
<path d="M2685 3249 c-43 -24 -45 -36 -45 -220 0 -163 2 -178 21 -203 l20 -26
188 0 c248 0 231 -17 231 227 0 244 16 227 -217 231 -118 1 -185 -2 -198 -9z
m265 -219 l0 -80 -80 0 -80 0 0 80 0 80 80 0 80 0 0 -80z"/>
<path d="M3285 3235 c-25 -24 -25 -26 -25 -203 0 -166 2 -181 21 -206 l20 -26
188 0 c248 0 231 -17 231 229 0 246 15 231 -230 231 -179 0 -181 0 -205 -25z
m285 -205 l0 -80 -80 0 -80 0 0 80 0 80 80 0 80 0 0 -80z"/>
<path d="M3927 3253 c-38 -10 -47 -53 -47 -233 0 -233 -14 -220 233 -220 245
0 227 -18 227 230 l0 189 -26 20 c-25 20 -39 21 -198 20 -94 -1 -179 -3 -189
-6z m263 -223 l0 -80 -80 0 -80 0 0 80 0 80 80 0 80 0 0 -80z"/>
<path d="M833 2633 c-47 -9 -53 -34 -53 -230 0 -245 -9 -237 259 -231 l153 3
24 28 c23 27 24 33 24 202 0 169 -1 175 -24 202 l-24 28 -169 1 c-92 1 -178 0
-190 -3z m252 -228 l0 -80 -77 -3 -78 -3 0 86 0 86 78 -3 77 -3 0 -80z"/>
<path d="M1444 2626 c-17 -8 -34 -21 -38 -31 -3 -9 -6 -97 -6 -196 0 -241 -9
-233 259 -227 l153 3 24 28 c23 27 24 33 24 202 0 169 -1 175 -24 202 l-24 28
-169 2 c-126 2 -176 -1 -199 -11z m261 -221 l0 -80 -77 -3 -78 -3 0 86 0 86
78 -3 77 -3 0 -80z"/>
<path d="M2064 2626 c-17 -8 -34 -21 -38 -31 -10 -27 -7 -364 4 -385 5 -10 24
-23 41 -29 40 -14 319 -14 355 -1 51 20 53 31 53 225 0 194 -2 205 -53 225
-41 15 -324 12 -362 -4z m266 -221 l0 -85 -80 0 -80 0 0 85 0 85 80 0 80 0 0
-85z"/>
<path d="M3709 2319 c-226 -19 -435 -115 -603 -278 -133 -129 -219 -270 -272
-446 -36 -120 -45 -339 -20 -464 64 -315 259 -571 541 -711 148 -74 268 -102
435 -103 188 -1 309 27 471 109 248 127 442 372 515 649 23 86 27 120 27 245
0 158 -12 220 -72 376 -127 329 -475 594 -816 620 -38 3 -81 6 -95 8 -14 1
-64 -1 -111 -5z m21 -199 c0 -41 5 -56 25 -75 13 -14 36 -25 50 -25 14 0 37
11 50 25 20 19 25 34 25 75 l0 52 53 -7 c114 -16 246 -69 357 -145 65 -45 174
-156 219 -223 70 -104 141 -295 141 -379 0 -27 -2 -28 -50 -28 -61 0 -90 -24
-90 -74 0 -47 37 -76 98 -76 l45 0 -7 -52 c-10 -72 -61 -221 -98 -286 -85
-149 -230 -284 -382 -356 -77 -37 -210 -76 -258 -76 -26 0 -28 2 -28 44 0 59
-33 99 -80 99 -47 0 -70 -31 -70 -95 l0 -51 -57 7 c-80 9 -223 59 -302 106
-223 130 -384 370 -417 622 l-7 48 57 0 c65 0 96 22 96 69 0 48 -27 71 -92 78
-68 7 -66 3 -38 121 61 253 237 468 474 577 75 35 207 73 259 74 26 1 27 -1
27 -49z"/>
<path d="M4175 1748 c-11 -7 -97 -81 -192 -165 -94 -84 -175 -153 -180 -153
-4 0 -47 41 -94 91 -82 87 -87 90 -124 87 -47 -4 -81 -43 -71 -81 6 -27 216
-254 254 -275 15 -9 32 -10 47 -5 20 7 274 224 428 366 47 44 52 94 11 126
-30 24 -50 26 -79 9z"/>
<path d="M800 1990 c-19 -19 -20 -33 -20 -204 0 -247 -15 -230 210 -234 187
-4 220 2 239 44 7 15 11 89 11 193 0 155 -2 170 -21 195 l-20 26 -190 0 c-176
0 -190 -1 -209 -20z m290 -210 l0 -80 -80 0 -80 0 0 80 0 80 80 0 80 0 0 -80z"/>
<path d="M1420 1990 c-19 -19 -20 -33 -20 -204 0 -247 -15 -230 210 -234 187
-4 220 2 239 44 7 15 11 89 11 193 0 155 -2 170 -21 195 l-20 26 -190 0 c-176
0 -190 -1 -209 -20z m290 -210 l0 -80 -80 0 -80 0 0 80 0 80 80 0 80 0 0 -80z"/>
</g>
</svg>
